<svg xmlns="http://www.w3.org/2000/svg" width="1282" height="1031" viewBox="0 0 1282 1031" font-family="Segoe UI, Arial, sans-serif">
<rect width="100%" height="100%" fill="white"/>
<defs><marker id="arw" viewBox="0 0 10 10" refX="9" refY="5" markerWidth="6" markerHeight="6" orient="auto-start-reverse"><path d="M 0 1 L 9 5 L 0 9 z" fill="#9ca3af"/></marker><marker id="arw-ok" viewBox="0 0 10 10" refX="9" refY="5" markerWidth="6" markerHeight="6" orient="auto-start-reverse"><path d="M 0 1 L 9 5 L 0 9 z" fill="#16a34a"/></marker><marker id="arw-warn" viewBox="0 0 10 10" refX="9" refY="5" markerWidth="6" markerHeight="6" orient="auto-start-reverse"><path d="M 0 1 L 9 5 L 0 9 z" fill="#d97706"/></marker><marker id="arw-fail" viewBox="0 0 10 10" refX="9" refY="5" markerWidth="6" markerHeight="6" orient="auto-start-reverse"><path d="M 0 1 L 9 5 L 0 9 z" fill="#dc2626"/></marker></defs>
<text x="12" y="20" font-size="11" font-weight="700" fill="#6b7280" letter-spacing="1">RAW (24)</text>
<text x="354" y="20" font-size="11" font-weight="700" fill="#6b7280" letter-spacing="1">BRONZE (15)</text>
<text x="696" y="20" font-size="11" font-weight="700" fill="#6b7280" letter-spacing="1">SILVER (15)</text>
<text x="1038" y="20" font-size="11" font-weight="700" fill="#6b7280" letter-spacing="1">REPORTS / MODELS (1)</text>
<path d="M928,454.5 C981.5,454.5 981.5,532.5 1035,532.5" fill="none" stroke="#d1d5db" stroke-width="1.1" marker-end="url(#arw)" opacity="0.6"/>
<path d="M586,727.5 C639.5,727.5 639.5,337.5 693,337.5" fill="none" stroke="#d1d5db" stroke-width="1.1" marker-end="url(#arw)" opacity="0.6"/>
<path d="M586,688.5 C639.5,688.5 639.5,688.5 693,688.5" fill="none" stroke="#d1d5db" stroke-width="1.1" marker-end="url(#arw)" opacity="0.6"/>
<path d="M586,805.5 C639.5,805.5 639.5,415.5 693,415.5" fill="none" stroke="#d1d5db" stroke-width="1.1" marker-end="url(#arw)" opacity="0.6"/>
<path d="M586,415.5 C639.5,415.5 639.5,571.5 693,571.5" fill="none" stroke="#d1d5db" stroke-width="1.1" marker-end="url(#arw)" opacity="0.6"/>
<path d="M244,786 C297.5,786 297.5,571.5 351,571.5" fill="none" stroke="#d1d5db" stroke-width="1.1" marker-end="url(#arw)" opacity="0.6"/>
<path d="M244,162 C297.5,162 297.5,688.5 351,688.5" fill="none" stroke="#dc2626" stroke-width="1.75" marker-end="url(#arw-fail)" opacity="0.95"/>
<path d="M244,903 C297.5,903 297.5,532.5 351,532.5" fill="none" stroke="#d1d5db" stroke-width="1.1" marker-end="url(#arw)" opacity="0.6"/>
<path d="M244,825 C297.5,825 297.5,805.5 351,805.5" fill="none" stroke="#d1d5db" stroke-width="1.1" marker-end="url(#arw)" opacity="0.6"/>
<path d="M244,357 C297.5,357 297.5,805.5 351,805.5" fill="none" stroke="#d1d5db" stroke-width="1.1" marker-end="url(#arw)" opacity="0.6"/>
<path d="M586,571.5 C639.5,571.5 639.5,766.5 693,766.5" fill="none" stroke="#d1d5db" stroke-width="1.1" marker-end="url(#arw)" opacity="0.6"/>
<path d="M244,747 C297.5,747 297.5,415.5 351,415.5" fill="none" stroke="#d1d5db" stroke-width="1.1" marker-end="url(#arw)" opacity="0.6"/>
<path d="M244,864 C297.5,864 297.5,454.5 351,454.5" fill="none" stroke="#d1d5db" stroke-width="1.1" marker-end="url(#arw)" opacity="0.6"/>
<path d="M244,942 C297.5,942 297.5,688.5 351,688.5" fill="none" stroke="#dc2626" stroke-width="1.75" marker-end="url(#arw-fail)" opacity="0.95"/>
<path d="M244,318 C297.5,318 297.5,532.5 351,532.5" fill="none" stroke="#d1d5db" stroke-width="1.1" marker-end="url(#arw)" opacity="0.6"/>
<path d="M586,727.5 C639.5,727.5 639.5,649.5 693,649.5" fill="none" stroke="#d1d5db" stroke-width="1.1" marker-end="url(#arw)" opacity="0.6"/>
<path d="M586,493.5 C639.5,493.5 639.5,610.5 693,610.5" fill="none" stroke="#d1d5db" stroke-width="1.1" marker-end="url(#arw)" opacity="0.6"/>
<path d="M928,259.5 C810.5,259.5 810.5,649.5 693,649.5" fill="none" stroke="#d1d5db" stroke-width="1.1" marker-end="url(#arw)" opacity="0.6"/>
<path d="M928,259.5 C810.5,259.5 810.5,337.5 693,337.5" fill="none" stroke="#d1d5db" stroke-width="1.1" marker-end="url(#arw)" opacity="0.6"/>
<path d="M928,805.5 C810.5,805.5 810.5,298.5 693,298.5" fill="none" stroke="#d1d5db" stroke-width="1.1" marker-end="url(#arw)" opacity="0.6"/>
<path d="M928,571.5 C810.5,571.5 810.5,298.5 693,298.5" fill="none" stroke="#d1d5db" stroke-width="1.1" marker-end="url(#arw)" opacity="0.6"/>
<path d="M928,571.5 C810.5,571.5 810.5,610.5 693,610.5" fill="none" stroke="#d1d5db" stroke-width="1.1" marker-end="url(#arw)" opacity="0.6"/>
<path d="M928,766.5 C810.5,766.5 810.5,298.5 693,298.5" fill="none" stroke="#d1d5db" stroke-width="1.1" marker-end="url(#arw)" opacity="0.6"/>
<path d="M928,766.5 C810.5,766.5 810.5,337.5 693,337.5" fill="none" stroke="#d1d5db" stroke-width="1.1" marker-end="url(#arw)" opacity="0.6"/>
<path d="M928,766.5 C810.5,766.5 810.5,610.5 693,610.5" fill="none" stroke="#d1d5db" stroke-width="1.1" marker-end="url(#arw)" opacity="0.6"/>
<path d="M586,376.5 C639.5,376.5 639.5,337.5 693,337.5" fill="none" stroke="#d1d5db" stroke-width="1.1" marker-end="url(#arw)" opacity="0.6"/>
<path d="M586,298.5 C639.5,298.5 639.5,649.5 693,649.5" fill="none" stroke="#d1d5db" stroke-width="1.1" marker-end="url(#arw)" opacity="0.6"/>
<path d="M586,727.5 C639.5,727.5 639.5,532.5 693,532.5" fill="none" stroke="#d1d5db" stroke-width="1.1" marker-end="url(#arw)" opacity="0.6"/>
<path d="M244,84 C297.5,84 297.5,727.5 351,727.5" fill="none" stroke="#d1d5db" stroke-width="1.1" marker-end="url(#arw)" opacity="0.6"/>
<path d="M586,766.5 C639.5,766.5 639.5,454.5 693,454.5" fill="none" stroke="#d1d5db" stroke-width="1.1" marker-end="url(#arw)" opacity="0.6"/>
<path d="M928,532.5 C810.5,532.5 810.5,454.5 693,454.5" fill="none" stroke="#d1d5db" stroke-width="1.1" marker-end="url(#arw)" opacity="0.6"/>
<path d="M928,259.5 C810.5,259.5 810.5,454.5 693,454.5" fill="none" stroke="#d1d5db" stroke-width="1.1" marker-end="url(#arw)" opacity="0.6"/>
<path d="M928,805.5 C810.5,805.5 810.5,454.5 693,454.5" fill="none" stroke="#d1d5db" stroke-width="1.1" marker-end="url(#arw)" opacity="0.6"/>
<path d="M928,805.5 C810.5,805.5 810.5,649.5 693,649.5" fill="none" stroke="#d1d5db" stroke-width="1.1" marker-end="url(#arw)" opacity="0.6"/>
<path d="M928,376.5 C810.5,376.5 810.5,454.5 693,454.5" fill="none" stroke="#d1d5db" stroke-width="1.1" marker-end="url(#arw)" opacity="0.6"/>
<path d="M244,435 C297.5,435 297.5,493.5 351,493.5" fill="none" stroke="#d1d5db" stroke-width="1.1" marker-end="url(#arw)" opacity="0.6"/>
<path d="M244,552 C297.5,552 297.5,298.5 351,298.5" fill="none" stroke="#d1d5db" stroke-width="1.1" marker-end="url(#arw)" opacity="0.6"/>
<path d="M586,532.5 C639.5,532.5 639.5,805.5 693,805.5" fill="none" stroke="#d1d5db" stroke-width="1.1" marker-end="url(#arw)" opacity="0.6"/>
<path d="M928,688.5 C810.5,688.5 810.5,805.5 693,805.5" fill="none" stroke="#d1d5db" stroke-width="1.1" marker-end="url(#arw)" opacity="0.6"/>
<path d="M928,415.5 C810.5,415.5 810.5,454.5 693,454.5" fill="none" stroke="#d1d5db" stroke-width="1.1" marker-end="url(#arw)" opacity="0.6"/>
<path d="M928,766.5 C810.5,766.5 810.5,649.5 693,649.5" fill="none" stroke="#d1d5db" stroke-width="1.1" marker-end="url(#arw)" opacity="0.6"/>
<path d="M586,376.5 C639.5,376.5 639.5,649.5 693,649.5" fill="none" stroke="#d1d5db" stroke-width="1.1" marker-end="url(#arw)" opacity="0.6"/>
<path d="M586,727.5 C639.5,727.5 639.5,454.5 693,454.5" fill="none" stroke="#d1d5db" stroke-width="1.1" marker-end="url(#arw)" opacity="0.6"/>
<path d="M244,981 C297.5,981 297.5,727.5 351,727.5" fill="none" stroke="#d1d5db" stroke-width="1.1" marker-end="url(#arw)" opacity="0.6"/>
<path d="M586,454.5 C639.5,454.5 639.5,259.5 693,259.5" fill="none" stroke="#d1d5db" stroke-width="1.1" marker-end="url(#arw)" opacity="0.6"/>
<path d="M586,649.5 C639.5,649.5 639.5,298.5 693,298.5" fill="none" stroke="#d1d5db" stroke-width="1.1" marker-end="url(#arw)" opacity="0.6"/>
<path d="M586,610.5 C639.5,610.5 639.5,454.5 693,454.5" fill="none" stroke="#d1d5db" stroke-width="1.1" marker-end="url(#arw)" opacity="0.6"/>
<path d="M244,240 C297.5,240 297.5,766.5 351,766.5" fill="none" stroke="#d1d5db" stroke-width="1.1" marker-end="url(#arw)" opacity="0.6"/>
<path d="M244,279 C297.5,279 297.5,610.5 351,610.5" fill="none" stroke="#d1d5db" stroke-width="1.1" marker-end="url(#arw)" opacity="0.6"/>
<path d="M244,513 C297.5,513 297.5,337.5 351,337.5" fill="none" stroke="#d1d5db" stroke-width="1.1" marker-end="url(#arw)" opacity="0.6"/>
<path d="M244,591 C297.5,591 297.5,766.5 351,766.5" fill="none" stroke="#d1d5db" stroke-width="1.1" marker-end="url(#arw)" opacity="0.6"/>
<path d="M244,630 C297.5,630 297.5,376.5 351,376.5" fill="none" stroke="#d1d5db" stroke-width="1.1" marker-end="url(#arw)" opacity="0.6"/>
<path d="M244,708 C297.5,708 297.5,649.5 351,649.5" fill="none" stroke="#d1d5db" stroke-width="1.1" marker-end="url(#arw)" opacity="0.6"/>
<path d="M244,123 C297.5,123 297.5,610.5 351,610.5" fill="none" stroke="#d1d5db" stroke-width="1.1" marker-end="url(#arw)" opacity="0.6"/>
<path d="M244,669 C297.5,669 297.5,337.5 351,337.5" fill="none" stroke="#d1d5db" stroke-width="1.1" marker-end="url(#arw)" opacity="0.6"/>
<rect x="12" y="68" width="232" height="32" rx="7" fill="white" stroke="#e5e7eb" stroke-width="1"/>
<circle cx="26" cy="84" r="4" fill="#16a34a"/>
<text x="36" y="88" font-size="11" font-family="Consolas, monospace" fill="#111827">RawDB.retailmart.Orders</text>
<rect x="12" y="107" width="232" height="32" rx="7" fill="white" stroke="#e5e7eb" stroke-width="1"/>
<circle cx="26" cy="123" r="4" fill="#16a34a"/>
<text x="36" y="127" font-size="11" font-family="Consolas, monospace" fill="#111827">RawDB.logiship.Transactions</text>
<rect x="12" y="146" width="232" height="32" rx="7" fill="white" stroke="#e5e7eb" stroke-width="1"/>
<circle cx="26" cy="162" r="4" fill="#16a34a"/>
<text x="36" y="166" font-size="11" font-family="Consolas, monospace" fill="#111827">RawDB.retailmart.Categories</text>
<rect x="12" y="185" width="232" height="32" rx="7" fill="white" stroke="#e5e7eb" stroke-width="1"/>
<circle cx="26" cy="201" r="4" fill="#16a34a"/>
<text x="36" y="205" font-size="11" font-family="Consolas, monospace" fill="#111827">RawDB.retailmart.Customers</text>
<rect x="12" y="224" width="232" height="32" rx="7" fill="white" stroke="#e5e7eb" stroke-width="1"/>
<circle cx="26" cy="240" r="4" fill="#16a34a"/>
<text x="36" y="244" font-size="11" font-family="Consolas, monospace" fill="#111827">RawDB.retailmart.OrderItems</text>
<rect x="12" y="263" width="232" height="32" rx="7" fill="white" stroke="#e5e7eb" stroke-width="1"/>
<circle cx="26" cy="279" r="4" fill="#16a34a"/>
<text x="36" y="283" font-size="11" font-family="Consolas, monospace" fill="#111827">RawDB.retailmart.Payments</text>
<rect x="12" y="302" width="232" height="32" rx="7" fill="white" stroke="#e5e7eb" stroke-width="1"/>
<circle cx="26" cy="318" r="4" fill="#16a34a"/>
<text x="36" y="322" font-size="11" font-family="Consolas, monospace" fill="#111827">RawDB.retailmart.Products</text>
<rect x="12" y="341" width="232" height="32" rx="7" fill="white" stroke="#e5e7eb" stroke-width="1"/>
<circle cx="26" cy="357" r="4" fill="#16a34a"/>
<text x="36" y="361" font-size="11" font-family="Consolas, monospace" fill="#111827">RawDB.retailmart.Promotions</text>
<rect x="12" y="380" width="232" height="32" rx="7" fill="white" stroke="#e5e7eb" stroke-width="1"/>
<circle cx="26" cy="396" r="4" fill="#16a34a"/>
<text x="36" y="400" font-size="11" font-family="Consolas, monospace" fill="#111827">RawDB.RawWatermark</text>
<rect x="12" y="419" width="232" height="32" rx="7" fill="white" stroke="#e5e7eb" stroke-width="1"/>
<circle cx="26" cy="435" r="4" fill="#16a34a"/>
<text x="36" y="439" font-size="11" font-family="Consolas, monospace" fill="#111827">RawDB.logiship.ProcurementOrd…</text>
<rect x="12" y="458" width="232" height="32" rx="7" fill="white" stroke="#e5e7eb" stroke-width="1"/>
<circle cx="26" cy="474" r="4" fill="#16a34a"/>
<text x="36" y="478" font-size="11" font-family="Consolas, monospace" fill="#111827">RawDB.RawLoadLog</text>
<rect x="12" y="497" width="232" height="32" rx="7" fill="white" stroke="#e5e7eb" stroke-width="1"/>
<circle cx="26" cy="513" r="4" fill="#16a34a"/>
<text x="36" y="517" font-size="11" font-family="Consolas, monospace" fill="#111827">RawDB.logiship.ProductReviews</text>
<rect x="12" y="536" width="232" height="32" rx="7" fill="white" stroke="#e5e7eb" stroke-width="1"/>
<circle cx="26" cy="552" r="4" fill="#16a34a"/>
<text x="36" y="556" font-size="11" font-family="Consolas, monospace" fill="#111827">RawDB.logiship.Returns</text>
<rect x="12" y="575" width="232" height="32" rx="7" fill="white" stroke="#e5e7eb" stroke-width="1"/>
<circle cx="26" cy="591" r="4" fill="#16a34a"/>
<text x="36" y="595" font-size="11" font-family="Consolas, monospace" fill="#111827">RawDB.logiship.SalesOrderLines</text>
<rect x="12" y="614" width="232" height="32" rx="7" fill="white" stroke="#e5e7eb" stroke-width="1"/>
<circle cx="26" cy="630" r="4" fill="#16a34a"/>
<text x="36" y="634" font-size="11" font-family="Consolas, monospace" fill="#111827">RawDB.logiship.Shipments</text>
<rect x="12" y="653" width="232" height="32" rx="7" fill="white" stroke="#e5e7eb" stroke-width="1"/>
<circle cx="26" cy="669" r="4" fill="#16a34a"/>
<text x="36" y="673" font-size="11" font-family="Consolas, monospace" fill="#111827">RawDB.retailmart.Reviews</text>
<rect x="12" y="692" width="232" height="32" rx="7" fill="white" stroke="#e5e7eb" stroke-width="1"/>
<circle cx="26" cy="708" r="4" fill="#16a34a"/>
<text x="36" y="712" font-size="11" font-family="Consolas, monospace" fill="#111827">RawDB.logiship.StockLedger</text>
<rect x="12" y="731" width="232" height="32" rx="7" fill="white" stroke="#e5e7eb" stroke-width="1"/>
<circle cx="26" cy="747" r="4" fill="#16a34a"/>
<text x="36" y="751" font-size="11" font-family="Consolas, monospace" fill="#111827">RawDB.logiship.Suppliers</text>
<rect x="12" y="770" width="232" height="32" rx="7" fill="white" stroke="#e5e7eb" stroke-width="1"/>
<circle cx="26" cy="786" r="4" fill="#16a34a"/>
<text x="36" y="790" font-size="11" font-family="Consolas, monospace" fill="#111827">RawDB.logiship.Warehouses</text>
<rect x="12" y="809" width="232" height="32" rx="7" fill="white" stroke="#e5e7eb" stroke-width="1"/>
<circle cx="26" cy="825" r="4" fill="#16a34a"/>
<text x="36" y="829" font-size="11" font-family="Consolas, monospace" fill="#111827">RawDB.logiship.Deals</text>
<rect x="12" y="848" width="232" height="32" rx="7" fill="white" stroke="#e5e7eb" stroke-width="1"/>
<circle cx="26" cy="864" r="4" fill="#16a34a"/>
<text x="36" y="868" font-size="11" font-family="Consolas, monospace" fill="#111827">RawDB.logiship.Members</text>
<rect x="12" y="887" width="232" height="32" rx="7" fill="white" stroke="#e5e7eb" stroke-width="1"/>
<circle cx="26" cy="903" r="4" fill="#16a34a"/>
<text x="36" y="907" font-size="11" font-family="Consolas, monospace" fill="#111827">RawDB.logiship.ProductCatalog</text>
<rect x="12" y="926" width="232" height="32" rx="7" fill="white" stroke="#e5e7eb" stroke-width="1"/>
<circle cx="26" cy="942" r="4" fill="#16a34a"/>
<text x="36" y="946" font-size="11" font-family="Consolas, monospace" fill="#111827">RawDB.logiship.ProductCategor…</text>
<rect x="12" y="965" width="232" height="32" rx="7" fill="white" stroke="#e5e7eb" stroke-width="1"/>
<circle cx="26" cy="981" r="4" fill="#16a34a"/>
<text x="36" y="985" font-size="11" font-family="Consolas, monospace" fill="#111827">RawDB.logiship.SalesOrders</text>
<rect x="354" y="243.5" width="232" height="32" rx="7" fill="white" stroke="#e5e7eb" stroke-width="1"/>
<circle cx="368" cy="259.5" r="4" fill="#16a34a"/>
<text x="378" y="263.5" font-size="11" font-family="Consolas, monospace" fill="#111827">BronzeDB.BrzLoadLog</text>
<rect x="354" y="282.5" width="232" height="32" rx="7" fill="white" stroke="#e5e7eb" stroke-width="1"/>
<circle cx="368" cy="298.5" r="4" fill="#16a34a"/>
<text x="378" y="302.5" font-size="11" font-family="Consolas, monospace" fill="#111827">BronzeDB.br_returns</text>
<rect x="354" y="321.5" width="232" height="32" rx="7" fill="white" stroke="#e5e7eb" stroke-width="1"/>
<circle cx="368" cy="337.5" r="4" fill="#16a34a"/>
<text x="378" y="341.5" font-size="11" font-family="Consolas, monospace" fill="#111827">BronzeDB.br_reviews</text>
<rect x="354" y="360.5" width="232" height="32" rx="7" fill="white" stroke="#e5e7eb" stroke-width="1"/>
<circle cx="368" cy="376.5" r="4" fill="#16a34a"/>
<text x="378" y="380.5" font-size="11" font-family="Consolas, monospace" fill="#111827">BronzeDB.br_shipments</text>
<rect x="354" y="399.5" width="232" height="32" rx="7" fill="white" stroke="#e5e7eb" stroke-width="1"/>
<circle cx="368" cy="415.5" r="4" fill="#16a34a"/>
<text x="378" y="419.5" font-size="11" font-family="Consolas, monospace" fill="#111827">BronzeDB.br_suppliers</text>
<rect x="354" y="438.5" width="232" height="32" rx="7" fill="white" stroke="#e5e7eb" stroke-width="1"/>
<circle cx="368" cy="454.5" r="4" fill="#16a34a"/>
<text x="378" y="458.5" font-size="11" font-family="Consolas, monospace" fill="#111827">BronzeDB.br_customers</text>
<rect x="354" y="477.5" width="232" height="32" rx="7" fill="white" stroke="#e5e7eb" stroke-width="1"/>
<circle cx="368" cy="493.5" r="4" fill="#16a34a"/>
<text x="378" y="497.5" font-size="11" font-family="Consolas, monospace" fill="#111827">BronzeDB.br_procurement</text>
<rect x="354" y="516.5" width="232" height="32" rx="7" fill="white" stroke="#e5e7eb" stroke-width="1"/>
<circle cx="368" cy="532.5" r="4" fill="#16a34a"/>
<text x="378" y="536.5" font-size="11" font-family="Consolas, monospace" fill="#111827">BronzeDB.br_products</text>
<rect x="354" y="555.5" width="232" height="32" rx="7" fill="white" stroke="#e5e7eb" stroke-width="1"/>
<circle cx="368" cy="571.5" r="4" fill="#16a34a"/>
<text x="378" y="575.5" font-size="11" font-family="Consolas, monospace" fill="#111827">BronzeDB.br_warehouses</text>
<rect x="354" y="594.5" width="232" height="32" rx="7" fill="white" stroke="#e5e7eb" stroke-width="1"/>
<circle cx="368" cy="610.5" r="4" fill="#16a34a"/>
<text x="378" y="614.5" font-size="11" font-family="Consolas, monospace" fill="#111827">BronzeDB.br_payments</text>
<rect x="354" y="633.5" width="232" height="32" rx="7" fill="white" stroke="#e5e7eb" stroke-width="1"/>
<circle cx="368" cy="649.5" r="4" fill="#16a34a"/>
<text x="378" y="653.5" font-size="11" font-family="Consolas, monospace" fill="#111827">BronzeDB.br_inventory</text>
<rect x="354" y="672.5" width="232" height="32" rx="7" fill="white" stroke="#dc2626" stroke-width="1"/>
<circle cx="368" cy="688.5" r="4" fill="#dc2626"/>
<text x="378" y="692.5" font-size="11" font-family="Consolas, monospace" fill="#111827" font-weight="700">BronzeDB.br_categories</text>
<rect x="354" y="711.5" width="232" height="32" rx="7" fill="white" stroke="#e5e7eb" stroke-width="1"/>
<circle cx="368" cy="727.5" r="4" fill="#16a34a"/>
<text x="378" y="731.5" font-size="11" font-family="Consolas, monospace" fill="#111827">BronzeDB.br_orders</text>
<rect x="354" y="750.5" width="232" height="32" rx="7" fill="white" stroke="#e5e7eb" stroke-width="1"/>
<circle cx="368" cy="766.5" r="4" fill="#16a34a"/>
<text x="378" y="770.5" font-size="11" font-family="Consolas, monospace" fill="#111827">BronzeDB.br_order_items</text>
<rect x="354" y="789.5" width="232" height="32" rx="7" fill="white" stroke="#e5e7eb" stroke-width="1"/>
<circle cx="368" cy="805.5" r="4" fill="#16a34a"/>
<text x="378" y="809.5" font-size="11" font-family="Consolas, monospace" fill="#111827">BronzeDB.br_promotions</text>
<rect x="696" y="243.5" width="232" height="32" rx="7" fill="white" stroke="#e5e7eb" stroke-width="1"/>
<circle cx="710" cy="259.5" r="4" fill="#16a34a"/>
<text x="720" y="263.5" font-size="11" font-family="Consolas, monospace" fill="#111827">SilverDB.dim_customer</text>
<rect x="696" y="282.5" width="232" height="32" rx="7" fill="white" stroke="#e5e7eb" stroke-width="1"/>
<circle cx="710" cy="298.5" r="4" fill="#16a34a"/>
<text x="720" y="302.5" font-size="11" font-family="Consolas, monospace" fill="#111827">SilverDB.fact_inventory_snaps…</text>
<rect x="696" y="321.5" width="232" height="32" rx="7" fill="white" stroke="#e5e7eb" stroke-width="1"/>
<circle cx="710" cy="337.5" r="4" fill="#16a34a"/>
<text x="720" y="341.5" font-size="11" font-family="Consolas, monospace" fill="#111827">SilverDB.fact_shipments</text>
<rect x="696" y="360.5" width="232" height="32" rx="7" fill="white" stroke="#e5e7eb" stroke-width="1"/>
<circle cx="710" cy="376.5" r="4" fill="#16a34a"/>
<text x="720" y="380.5" font-size="11" font-family="Consolas, monospace" fill="#111827">SilverDB.dim_payment_method</text>
<rect x="696" y="399.5" width="232" height="32" rx="7" fill="white" stroke="#e5e7eb" stroke-width="1"/>
<circle cx="710" cy="415.5" r="4" fill="#16a34a"/>
<text x="720" y="419.5" font-size="11" font-family="Consolas, monospace" fill="#111827">SilverDB.dim_promotion</text>
<rect x="696" y="438.5" width="232" height="32" rx="7" fill="white" stroke="#e5e7eb" stroke-width="1"/>
<circle cx="710" cy="454.5" r="4" fill="#16a34a"/>
<text x="720" y="458.5" font-size="11" font-family="Consolas, monospace" fill="#111827">SilverDB.fact_sales</text>
<rect x="696" y="477.5" width="232" height="32" rx="7" fill="white" stroke="#e5e7eb" stroke-width="1"/>
<circle cx="710" cy="493.5" r="4" fill="#16a34a"/>
<text x="720" y="497.5" font-size="11" font-family="Consolas, monospace" fill="#111827">SilverDB.SilverLoadLog</text>
<rect x="696" y="516.5" width="232" height="32" rx="7" fill="white" stroke="#e5e7eb" stroke-width="1"/>
<circle cx="710" cy="532.5" r="4" fill="#16a34a"/>
<text x="720" y="536.5" font-size="11" font-family="Consolas, monospace" fill="#111827">SilverDB.dim_location</text>
<rect x="696" y="555.5" width="232" height="32" rx="7" fill="white" stroke="#e5e7eb" stroke-width="1"/>
<circle cx="710" cy="571.5" r="4" fill="#16a34a"/>
<text x="720" y="575.5" font-size="11" font-family="Consolas, monospace" fill="#111827">SilverDB.dim_supplier</text>
<rect x="696" y="594.5" width="232" height="32" rx="7" fill="white" stroke="#e5e7eb" stroke-width="1"/>
<circle cx="710" cy="610.5" r="4" fill="#16a34a"/>
<text x="720" y="614.5" font-size="11" font-family="Consolas, monospace" fill="#111827">SilverDB.fact_procurement</text>
<rect x="696" y="633.5" width="232" height="32" rx="7" fill="white" stroke="#e5e7eb" stroke-width="1"/>
<circle cx="710" cy="649.5" r="4" fill="#16a34a"/>
<text x="720" y="653.5" font-size="11" font-family="Consolas, monospace" fill="#111827">SilverDB.fact_returns</text>
<rect x="696" y="672.5" width="232" height="32" rx="7" fill="white" stroke="#e5e7eb" stroke-width="1"/>
<circle cx="710" cy="688.5" r="4" fill="#16a34a"/>
<text x="720" y="692.5" font-size="11" font-family="Consolas, monospace" fill="#111827">SilverDB.dim_category</text>
<rect x="696" y="711.5" width="232" height="32" rx="7" fill="white" stroke="#e5e7eb" stroke-width="1"/>
<circle cx="710" cy="727.5" r="4" fill="#16a34a"/>
<text x="720" y="731.5" font-size="11" font-family="Consolas, monospace" fill="#111827">SilverDB.dim_date</text>
<rect x="696" y="750.5" width="232" height="32" rx="7" fill="white" stroke="#e5e7eb" stroke-width="1"/>
<circle cx="710" cy="766.5" r="4" fill="#16a34a"/>
<text x="720" y="770.5" font-size="11" font-family="Consolas, monospace" fill="#111827">SilverDB.dim_warehouse</text>
<rect x="696" y="789.5" width="232" height="32" rx="7" fill="white" stroke="#e5e7eb" stroke-width="1"/>
<circle cx="710" cy="805.5" r="4" fill="#16a34a"/>
<text x="720" y="809.5" font-size="11" font-family="Consolas, monospace" fill="#111827">SilverDB.dim_product</text>
<rect x="1038" y="516.5" width="232" height="32" rx="7" fill="white" stroke="#e5e7eb" stroke-width="1"/>
<circle cx="1052" cy="532.5" r="4" fill="#16a34a"/>
<text x="1062" y="536.5" font-size="11" font-family="Consolas, monospace" fill="#111827">Daily Sales Dashboard</text>
</svg>